<?xml version="1.0" encoding="UTF-8" standalone="no"?>
<!-- Uploaded to: SVG Repo, www.svgrepo.com, Generator: SVG Repo Mixer Tools -->

<svg
   width="800px"
   height="800px"
   viewBox="0 0 24 24"
   version="1.1"
   id="svg13"
   sodipodi:docname="notepad-svgrepo-com.svg"
   inkscape:version="1.4.2 (f4327f4, 2025-05-13)"
   xmlns:inkscape="http://www.inkscape.org/namespaces/inkscape"
   xmlns:sodipodi="http://sodipodi.sourceforge.net/DTD/sodipodi-0.dtd"
   xmlns="http://www.w3.org/2000/svg"
   xmlns:svg="http://www.w3.org/2000/svg">
  <defs
     id="defs13" />
  <sodipodi:namedview
     id="namedview13"
     pagecolor="#ffffff"
     bordercolor="#000000"
     borderopacity="0.25"
     inkscape:showpageshadow="2"
     inkscape:pageopacity="0.0"
     inkscape:pagecheckerboard="0"
     inkscape:deskcolor="#d1d1d1"
     inkscape:zoom="0.96625"
     inkscape:cx="399.48254"
     inkscape:cy="400"
     inkscape:window-width="1920"
     inkscape:window-height="991"
     inkscape:window-x="-9"
     inkscape:window-y="-9"
     inkscape:window-maximized="1"
     inkscape:current-layer="g13" />
  <g
     transform="translate(0 -1028.4)"
     id="g13">
    <path
       d="m5 1030.4c-1.1046 0-2 0.9-2 2v8 4 6c0 1.1 0.8954 2 2 2h14c1.105 0 2-0.9 2-2v-6-4-4-4c0-1.1-0.895-2-2-2h-4-10z"
       fill="#bdc3c7"
       id="path1"
       style="fill:#ececec" />
    <g
       fill="#95a5a6"
       id="g5">
      <path
         d="m 6,1028.4 c -0.5523,0 -1,0.4 -1,1 v 3 c 0,0.5 0.4477,1 1,1 0.5523,0 1,-0.5 1,-1 v -3 c 0,-0.6 -0.4477,-1 -1,-1 z m 4,0 c -0.5523,0 -1,0.4 -1,1 v 3 c 0,0.5 0.4477,1 1,1 0.552,0 1,-0.5 1,-1 v -3 c 0,-0.6 -0.448,-1 -1,-1 z m 4,0 c -0.552,0 -1,0.4 -1,1 v 3 c 0,0.5 0.448,1 1,1 0.552,0 1,-0.5 1,-1 v -3 c 0,-0.6 -0.448,-1 -1,-1 z m 4,0 c -0.552,0 -1,0.4 -1,1 v 3 c 0,0.5 0.448,1 1,1 0.552,0 1,-0.5 1,-1 v -3 c 0,-0.6 -0.448,-1 -1,-1 z"
         id="path2"
         style="fill:#333333" />
      <rect
         height="1"
         width="12"
         y="1043.4"
         x="6"
         id="rect2"
         style="fill:#333333" />
      <rect
         height="1"
         width="12"
         y="1040.4"
         x="6"
         id="rect3"
         style="fill:#333333" />
      <rect
         height="1"
         width="12"
         y="1037.4"
         x="6"
         id="rect4"
         style="fill:#333333" />
      <rect
         transform="translate(0 1028.4)"
         height="1"
         width="4"
         y="18"
         x="6"
         id="rect5"
         style="fill:#1a1a1a" />
    </g>
    <path
       d="m5 1032.4c0 0.5 0.4477 1 1 1s1-0.5 1-1h-2zm4 0c0 0.5 0.4477 1 1 1 0.552 0 1-0.5 1-1h-2zm4 0c0 0.5 0.448 1 1 1s1-0.5 1-1h-2zm4 0c0 0.5 0.448 1 1 1s1-0.5 1-1h-2z"
       fill="#7f8c8d"
       id="path5"
       style="fill:#4d4d4d" />
    <path
       d="m3 1049.4v1c0 1.1 0.8954 2 2 2h14c1.105 0 2-0.9 2-2v-1c0 1.1-0.895 2-2 2h-14c-1.1046 0-2-0.9-2-2z"
       fill="#95a5a6"
       id="path6"
       style="fill:#cccccc" />
    <g
       transform="matrix(.70711 .70711 -.70711 .70711 773.22 370.4)"
       id="g12">
      <path
         d="m-63 1003.4v11.3 0.7 1l2 2 2-2v-1-0.7-11.3h-4z"
         fill="#ecf0f1"
         id="path7" />
      <path
         d="m-61 1003.4v15l2-2v-1-0.7-11.3h-2z"
         fill="#bdc3c7"
         id="path8" />
      <rect
         height="11"
         width="4"
         y="1004.4"
         x="-63"
         fill="#e67e22"
         id="rect8"
         style="fill:#b3b3b3" />
      <path
         d="m-61 1000.4c-1.105 0-2 0.9-2 2v1h4v-1c0-1.1-0.895-2-2-2z"
         fill="#7f8c8d"
         id="path9"
         style="fill:#b3b3b3" />
      <g
         transform="translate(-7,1)"
         id="g11">
        <path
           d="m-55.406 1016 1.406 1.4 1.406-1.4h-1.406-1.406z"
           fill="#34495e"
           id="path10"
           style="fill:#999999" />
        <path
           d="m-54 1016v1.4l1.406-1.4h-1.406z"
           fill="#2c3e50"
           id="path11"
           style="fill:#b3b3b3" />
      </g>
      <path
         d="m-61 1000.4c-1.105 0-2 0.9-2 2v1h2v-3z"
         fill="#95a5a6"
         id="path12"
         style="fill:#cccccc" />
      <rect
         height="11"
         width="2"
         y="1004.4"
         x="-61"
         fill="#d35400"
         id="rect12"
         style="fill:#4d4d4d" />
    </g>
  </g>
</svg>
