<?xml version="1.0" encoding="UTF-8" standalone="no"?>
<svg
   width="800px"
   height="800px"
   viewBox="0 0 24 24"
   fill="none"
   transform="rotate(0) scale(1, 1)"
   version="1.1"
   id="svg1"
   sodipodi:docname="settings-svgrepo-com (1).svg"
   inkscape:version="1.4.2 (f4327f4, 2025-05-13)"
   xmlns:inkscape="http://www.inkscape.org/namespaces/inkscape"
   xmlns:sodipodi="http://sodipodi.sourceforge.net/DTD/sodipodi-0.dtd"
   xmlns="http://www.w3.org/2000/svg"
   xmlns:svg="http://www.w3.org/2000/svg">
  <defs
     id="defs1" />
  <sodipodi:namedview
     id="namedview1"
     pagecolor="#ffffff"
     bordercolor="#000000"
     borderopacity="0.25"
     inkscape:showpageshadow="2"
     inkscape:pageopacity="0.0"
     inkscape:pagecheckerboard="0"
     inkscape:deskcolor="#d1d1d1"
     inkscape:zoom="0.96625"
     inkscape:cx="399.48254"
     inkscape:cy="400"
     inkscape:window-width="1920"
     inkscape:window-height="991"
     inkscape:window-x="-9"
     inkscape:window-y="-9"
     inkscape:window-maximized="1"
     inkscape:current-layer="svg1" />
  <path
     fill-rule="evenodd"
     clip-rule="evenodd"
     d="m 14.259725,0.16461613 c -0.466512,-0.18272738 -1.057998,-0.18272738 -2.240971,-0.18272738 -1.182971,0 -1.774457,0 -2.2409692,0.18272738 C 9.155685,0.40825665 8.6614444,0.87557739 8.4037731,1.4637641 8.2861436,1.7322741 8.2401098,2.0445333 8.2220944,2.5000196 8.1956255,3.1693918 7.8325702,3.7889774 7.2190498,4.1238976 6.6055295,4.4588058 5.8565153,4.4462991 5.230195,4.1332956 4.8039848,3.9202977 4.4949633,3.8018562 4.1902126,3.763928 3.5226332,3.6808221 2.8474823,3.8518709 2.3132929,4.2394465 1.9126446,4.5301252 1.6169015,5.0144536 1.0254279,5.9830983 0.43395443,6.9517552 0.13822397,7.4360716 0.07231011,7.9094897 -0.01558762,8.5406938 0.16532272,9.1790633 0.5752308,9.6841802 c 0.18709605,0.2305697 0.4500334,0.4242908 0.8581273,0.6667448 0.5999395,0.356476 0.9859613,0.963686 0.9859236,1.633551 -3.79e-5,0.669865 -0.386047,1.276954 -0.9859236,1.633313 -0.4081569,0.242572 -0.67114463,0.436413 -0.85825329,0.666982 -0.40990806,0.50507 -0.59080582,1.143367 -0.50292068,1.774584 0.06591385,0.47338 0.36165692,0.957806 0.95311787,1.926414 0.5914734,0.968609 0.8872165,1.453035 1.2878649,1.743616 0.5341895,0.387564 1.2093403,0.5586 1.8769197,0.475543 0.3047382,-0.03793 0.6137345,-0.156393 1.0399069,-0.369319 0.6263705,-0.313029 1.3754351,-0.325511 1.9889933,0.0094 0.6135582,0.334992 0.9766261,0.954566 1.0031076,1.624071 0.018016,0.455377 0.064049,0.767684 0.1816787,1.036183 0.2576713,0.588126 0.7519119,1.055506 1.3740117,1.29916 0.4665122,0.182638 1.0579982,0.182638 2.2409692,0.182638 1.182973,0 1.774459,0 2.240971,-0.18268 0.6221,-0.243651 1.116327,-0.711032 1.373962,-1.299159 0.117666,-0.268498 0.163776,-0.580806 0.181792,-1.036304 0.02646,-0.669384 0.38941,-1.288957 1.002944,-1.62395 0.613532,-0.334992 1.362622,-0.32239 1.989005,-0.0094 0.426198,0.212925 0.735106,0.331271 1.039857,0.369198 0.667579,0.08318 1.342718,-0.08787 1.876882,-0.475422 0.400749,-0.290703 0.696429,-0.775007 1.287915,-1.743736 0.591486,-0.968609 0.887166,-1.452914 0.953181,-1.926294 0.08781,-0.631218 -0.0931,-1.269634 -0.502921,-1.774703 -0.187209,-0.23053 -0.450135,-0.424372 -0.858316,-0.666823 -0.599801,-0.356359 -0.985811,-0.963568 -0.985811,-1.633434 0,-0.669863 0.38601,-1.276834 0.985811,-1.633191 0.408308,-0.242572 0.671232,-0.436294 0.858442,-0.6669838 0.40982,-0.5050329 0.590731,-1.1434024 0.50292,-1.7746185 C 23.899374,7.4361556 23.603694,6.9518272 23.012207,5.9831824 22.420722,5.0145376 22.125042,4.5302092 21.724292,4.2395305 21.190128,3.851955 20.51499,3.6809062 19.84741,3.764012 19.54266,3.8019401 19.233626,3.9203697 18.807554,4.1333437 18.181171,4.4463591 17.432082,4.4588778 16.818548,4.1239336 16.205016,3.7890014 15.841935,3.1693679 15.815352,2.4999595 15.797337,2.0445094 15.751353,1.7322621 15.633687,1.4637641 15.376052,0.87557739 14.881825,0.40825665 14.259725,0.16461613 Z M 12.018754,15.585252 c 2.103272,0 3.808188,-1.612068 3.808188,-3.600776 0,-1.9887088 -1.704916,-3.6007762 -3.808188,-3.6007762 -2.1032708,0 -3.8082375,1.6120674 -3.8082375,3.6007762 0,1.988708 1.7049667,3.600776 3.8082375,3.600776 z"
     fill="#000000"
     id="path1"
     style="stroke-width:1.22967" />
</svg>
